<?xml version="1.0" encoding="UTF-8"?>
<svg id="_レイヤー_2" data-name="レイヤー 2" xmlns="http://www.w3.org/2000/svg" xmlns:xlink="http://www.w3.org/1999/xlink" viewBox="0 0 478.8 801.28">
  <defs>
    <style>
      .cls-1 {
        fill: none;
      }

      .cls-2 {
        fill: #ef743f;
      }

      .cls-3 {
        fill: #191818;
      }

      .cls-4 {
        isolation: isolate;
      }

      .cls-5 {
        fill: #235f62;
      }

      .cls-6 {
        fill: #fff;
      }

      .cls-7 {
        clip-path: url(#clippath);
      }

      .cls-8 {
        fill: #666161;
      }
    </style>
    <clipPath id="clippath">
      <rect class="cls-1" x="-8.09" y="103.38" width="219.79" height="229.4"/>
    </clipPath>
  </defs>
  <rect class="cls-5" x="-12.82" y="-6.79" width="498.93" height="830.34"/>
  <g class="cls-7">
    <circle class="cls-2" cx="116.82" cy="206.61" r="91.13"/>
  </g>
  <polygon class="cls-1" points="11.26 810.51 473.95 810.51 473.95 777.4 11.26 777.42 11.26 810.51"/>
  <path class="cls-1" d="M33.2,766.12c5-1.17,10.56-.1,16.15-.44l.02-39.83-16.13-1.3v-19.04H11.25v71.91l.92-6.39,21.02-4.91h.01Z"/>
  <path class="cls-3" d="M473.92,770.81l-21.04-4.68-23.5-.66v-50.01l23.96-1.74v-8.22l1.29-459.79-90.54-62.06-.03-68.63-70.29-56.04-70.35,56.03.08,68.95L34.53,314.68l-1.28,390.83h0v19.04l16.13,1.3-.02,39.83c-5.59.34-11.14-.73-16.15.44l-21.02,4.91-.92,6.39,462.7-.02-.04-6.59h-.01ZM376.1,599l.02,22.29-15.62-2.38-.02-22.91,15.61,2.99h.01ZM360.49,541.17l15.61,2.99.02,22.29-15.62-2.38-.02-22.91h.01ZM376.1,653.84l.02,22.29-15.62-2.38-.02-22.91,15.61,2.99h.01ZM421.75,628.74v-20.63l12.74,2.48.04,20.06-12.77-1.91h-.01ZM434.52,685.49l-12.77-1.91v-20.63l12.74,2.48.04,20.06h-.01ZM421.75,573.9v-20.63l12.74,2.48.04,20.06-12.77-1.91h-.01ZM421.75,519.06v-20.63l12.74,2.48.04,20.06-12.77-1.91h-.01ZM421.74,468.22l.02-20.48,12.73,3.56v20.15l-12.75-3.22h0ZM434.48,251.99l.03,20.09-12.73-6.6-.04-20.6,12.74,7.11h0ZM434.48,302.56l.03,20.09-12.73-6.6-.04-20.6,12.74,7.11h0ZM434.5,352.17l-.02,20.05-12.74-5.45v-20.58l12.75,5.97h0ZM421.78,397.01l12.76,4.76-.07,19.97-12.73-4.18.04-20.56h0ZM360.51,509.23l-.02-22.91,15.61,2.99.02,22.29-15.62-2.38h.01ZM376.12,218.9l-.04,22.24-15.57-8.11v-22.85l15.61,8.71h0ZM376.12,269.47l-.04,22.24-15.57-8.11v-22.85l15.61,8.71h0ZM376.12,324.44l-.03,22.25-15.58-6.7v-22.86l15.61,7.31h0ZM376.12,379.37l-.02,22.28-15.59-5.19-.02-22.85,15.63,5.75h0ZM360.52,429.93l15.6,4.42v22.36l-15.67-3.98.07-22.8h0ZM64.82,765.44l-7.36.16v-40.57l16.09-1.6v41.99l-8.73.02ZM74.32,765.48v-42.17l8.13-.72v42.77l-8.13.12h0ZM92.36,765.2l-.02-43.58,8.7-.84.03,44.44-8.7-.03h-.01ZM101.81,765.05l.05-44.42,9.32-.92.02,45.28-9.4.06h.01ZM122.34,764.91v-46.26l9.88-.99.04,47.13-9.92.11h0ZM133.1,764.91v-47.3l10.44-1.06v48.09l-10.44.27h0ZM144.79,764.75v-48.3l10.55-1.03.02,49.1-10.56.23h-.01ZM156.62,764.63l-.03-49.29,11.27-1.17.02,50.15-11.25.31h-.01ZM181.74,764.28v-51.46l12.44-1.3-.26,5.72v40.83l.33,6.2h-12.52,0ZM195.38,764.18v-52.76l13.07-1.23v53.85l-13.07.15h0ZM224.49,763.94v-55.38l14.6-1.4.03,56.55-14.64.22h0ZM240.07,763.77v-56.69l15.45-1.57.02,57.9-15.47.36h0ZM256.87,763.62l.12-7.04-.08-51.07h15.91l.02,57.92-15.96.19h-.01Z"/>
  <g>
    <polygon class="cls-6" points="240.07 763.77 255.54 763.41 255.52 705.51 240.07 707.08 240.07 763.77"/>
    <polygon class="cls-6" points="256.48 763.44 271.95 763.08 271.93 703.82 256.48 705.39 256.48 763.44"/>
    <polygon class="cls-6" points="224.49 708.56 224.49 763.94 239.13 763.72 239.09 707.16 224.49 708.56"/>
    <polygon class="cls-6" points="195.37 711.41 195.38 764.18 208.46 764.03 208.45 710.18 195.37 711.41"/>
    <polygon class="cls-6" points="57.46 725.03 57.47 765.6 64.82 765.44 73.55 765.42 73.55 723.43 57.46 725.03"/>
    <polygon class="cls-6" points="193.92 717.24 194.18 711.53 181.75 712.82 181.74 764.28 194.26 764.27 193.92 758.08 193.92 717.24"/>
    <polygon class="cls-6" points="156.59 715.33 156.62 764.63 167.88 764.31 167.86 714.16 156.59 715.33"/>
    <polygon class="cls-6" points="144.78 716.45 144.79 764.75 155.35 764.52 155.33 715.42 144.78 716.45"/>
    <polygon class="cls-6" points="133.1 717.6 133.1 764.91 143.54 764.64 143.54 716.55 133.1 717.6"/>
    <polygon class="cls-6" points="122.33 718.65 122.34 764.91 132.26 764.79 132.22 717.66 122.33 718.65"/>
    <polygon class="cls-6" points="101.86 720.62 101.81 765.05 111.2 764.98 111.19 719.71 101.86 720.62"/>
    <polygon class="cls-6" points="92.34 721.63 92.36 765.2 101.07 765.23 101.04 720.79 92.34 721.63"/>
    <polygon class="cls-6" points="74.32 723.31 74.32 765.48 82.45 765.36 82.45 722.59 74.32 723.31"/>
  </g>
  <g class="cls-4">
    <g class="cls-4">
      <path class="cls-6" d="M30.83,39.67v-5.11h18.06v5.11h-18.06ZM36.86,58.98v-24.42h5.99v24.42h-5.99Z"/>
      <path class="cls-6" d="M50.73,58.98v-25.9h5.99v4.88c0,.52-.03,1.2-.09,2.05-.06.85-.15,1.76-.26,2.72s-.22,1.88-.33,2.76c-.11.88-.2,1.61-.28,2.2h.33c.22-2.05.6-3.72,1.15-5.01.54-1.29,1.28-2.24,2.22-2.85.94-.6,2.07-.91,3.4-.91,2.1,0,3.65.75,4.66,2.24s1.52,3.74,1.52,6.75v11.06h-5.99v-10.8c0-1.38-.19-2.39-.55-3.03-.37-.64-.98-.96-1.81-.96-.74,0-1.41.28-2,.83-.59.56-1.07,1.44-1.42,2.65-.36,1.21-.54,2.78-.54,4.7v6.62h-5.99Z"/>
      <path class="cls-6" d="M80.81,59.5c-1.85,0-3.4-.26-4.64-.79-1.25-.53-2.25-1.26-3.02-2.18-.76-.92-1.31-1.98-1.65-3.16s-.5-2.43-.5-3.74c0-1.41.18-2.75.54-4.03.36-1.28.91-2.42,1.67-3.42.75-1,1.73-1.79,2.92-2.37,1.2-.58,2.63-.87,4.31-.87s3.11.29,4.31.87c1.2.58,2.15,1.39,2.87,2.42.72,1.04,1.18,2.23,1.39,3.59s.18,2.82-.09,4.4l-14.17.22v-3.26l9.58-.19-.78,1.89c.15-1.13.13-2.09-.06-2.87-.18-.78-.52-1.37-1.02-1.78-.49-.41-1.17-.61-2.04-.61-.91,0-1.64.24-2.18.7-.54.47-.92,1.13-1.15,1.98-.22.85-.33,1.86-.33,3.02,0,2,.33,3.45,1,4.37.67.91,1.69,1.37,3.07,1.37.59,0,1.08-.07,1.48-.22.39-.15.71-.36.96-.65.25-.28.42-.63.52-1.04.1-.41.14-.87.11-1.39l5.48.3c.07.81,0,1.65-.24,2.52-.24.86-.67,1.67-1.31,2.41-.64.74-1.54,1.34-2.68,1.81-1.15.47-2.6.7-4.35.7Z"/>
      <path class="cls-6" d="M31.79,103.38v-24.42h8.99l4.99,17.35h.07l4.88-17.35h8.51v24.42h-5.55v-18.39h-.07l-5.51,18.39h-5.25l-5.44-18.39h-.07v18.39h-5.55Z"/>
      <path class="cls-6" d="M67.2,103.9c-.99,0-1.92-.17-2.81-.52-.89-.34-1.62-.91-2.18-1.68s-.85-1.82-.85-3.13c0-1.21.23-2.19.7-2.94.47-.75,1.1-1.36,1.89-1.81.79-.46,1.65-.8,2.59-1.04s1.86-.44,2.78-.61c1.28-.25,2.24-.44,2.89-.59.64-.15,1.08-.32,1.31-.52.23-.2.35-.47.35-.81,0-.72-.27-1.26-.8-1.63s-1.23-.56-2.09-.56c-.54,0-1.09.1-1.63.3-.54.2-.99.55-1.33,1.05-.35.51-.51,1.23-.48,2.17l-5.33-.37c-.05-1.55.19-2.84.7-3.87.52-1.02,1.23-1.83,2.13-2.41.9-.58,1.89-.99,2.96-1.24,1.07-.25,2.14-.37,3.2-.37,1.95,0,3.55.36,4.81,1.09,1.26.73,2.19,1.78,2.79,3.15s.91,3.03.91,4.98v10.84h-5.18v-5.59h-.22c-.1,1.11-.46,2.13-1.09,3.05-.63.92-1.46,1.67-2.48,2.22s-2.2.83-3.53.83ZM69.68,99.53c.42,0,.87-.08,1.35-.24.48-.16.94-.42,1.37-.79s.78-.88,1.05-1.54c.27-.65.41-1.46.41-2.42v-.89l1-.11c-.2.32-.52.58-.98.78-.46.2-.97.35-1.54.46-.57.11-1.14.22-1.72.33-.58.11-1.12.26-1.61.44-.49.18-.89.43-1.2.74-.31.31-.46.73-.46,1.28,0,.64.23,1.13.68,1.46.46.33,1,.5,1.65.5Z"/>
      <path class="cls-6" d="M90.69,103.9c-1.31,0-2.52-.13-3.64-.39-1.12-.26-2.1-.67-2.92-1.24-.83-.57-1.46-1.33-1.89-2.28-.43-.95-.61-2.1-.54-3.46l5.22-.44c.05.81.23,1.49.55,2.02s.76.92,1.33,1.17c.57.25,1.26.37,2.07.37.76,0,1.42-.13,1.98-.39.55-.26.83-.7.83-1.31,0-.32-.1-.58-.3-.79-.2-.21-.56-.41-1.09-.59-.53-.19-1.3-.4-2.31-.65-1.26-.32-2.39-.64-3.4-.96-1.01-.32-1.88-.7-2.59-1.15-.72-.44-1.26-.99-1.63-1.65-.37-.65-.56-1.46-.56-2.42,0-1.36.36-2.51,1.09-3.46s1.73-1.68,3.02-2.18c1.28-.5,2.76-.76,4.44-.76,1.5,0,2.91.23,4.22.7,1.31.47,2.34,1.23,3.09,2.29.75,1.06,1.03,2.47.83,4.22l-5.11.48c.07-.71-.02-1.33-.3-1.83-.27-.5-.67-.89-1.18-1.15-.52-.26-1.15-.39-1.89-.39-.84,0-1.49.15-1.94.46-.46.31-.68.7-.68,1.17,0,.37.14.68.43.94.28.26.73.48,1.33.67.6.18,1.39.39,2.35.61.84.17,1.71.39,2.63.67.91.27,1.76.64,2.55,1.09s1.43,1.05,1.92,1.79.74,1.68.74,2.81c0,1.21-.33,2.27-1,3.18-.67.91-1.64,1.62-2.92,2.11-1.28.49-2.86.74-4.74.74Z"/>
      <path class="cls-6" d="M109.08,103.83c-2.29,0-4-.59-5.12-1.76-1.12-1.17-1.68-2.99-1.68-5.46v-8.1h-2.15v-3.77h.11c1.53-.2,2.61-.71,3.26-1.54.64-.83,1.04-2.08,1.18-3.76v-.07h3.51v4.48h4.48v4.81h-4.48v7.4c0,.94.23,1.6.68,2s1.02.59,1.68.59c.35,0,.7-.05,1.07-.15s.71-.23,1.04-.41v5.22c-.76.22-1.44.36-2.04.43s-1.11.09-1.55.09Z"/>
      <path class="cls-6" d="M124.18,103.9c-1.85,0-3.4-.26-4.64-.79-1.25-.53-2.25-1.26-3.02-2.18-.76-.92-1.31-1.98-1.65-3.16s-.5-2.43-.5-3.74c0-1.41.18-2.75.54-4.03.36-1.28.91-2.42,1.67-3.42.75-1,1.73-1.79,2.92-2.37,1.2-.58,2.63-.87,4.31-.87s3.11.29,4.31.87c1.2.58,2.15,1.39,2.87,2.42.71,1.04,1.18,2.23,1.39,3.59.21,1.36.18,2.82-.09,4.4l-14.17.22v-3.26l9.58-.19-.78,1.89c.15-1.13.13-2.09-.06-2.87-.18-.78-.52-1.37-1.02-1.78-.49-.41-1.17-.61-2.04-.61-.91,0-1.64.24-2.18.7-.54.47-.92,1.13-1.15,1.98-.22.85-.33,1.86-.33,3.02,0,2,.33,3.45,1,4.37.67.91,1.69,1.37,3.07,1.37.59,0,1.09-.07,1.48-.22.39-.15.71-.36.96-.65.25-.28.42-.63.52-1.04.1-.41.13-.87.11-1.39l5.48.3c.07.81,0,1.65-.24,2.52-.23.86-.67,1.67-1.31,2.41s-1.54,1.34-2.68,1.81c-1.15.47-2.6.7-4.35.7Z"/>
      <path class="cls-6" d="M134.76,103.38v-19.54h5.18v7.77h.3c.15-2.07.44-3.71.87-4.9.43-1.2.97-2.05,1.63-2.55.65-.5,1.39-.76,2.2-.76.44,0,.91.06,1.39.19.48.12.96.32,1.42.59l-.3,6.66c-.54-.32-1.07-.56-1.59-.72-.52-.16-1.01-.24-1.48-.24-.79,0-1.46.22-2,.67-.54.44-.96,1.1-1.24,1.96-.28.86-.43,1.91-.43,3.14v7.73h-5.96Z"/>
      <path class="cls-6" d="M149.56,108.86v-25.01h5.25v6.03h.26c.27-1.46.68-2.67,1.22-3.64.54-.97,1.24-1.7,2.09-2.18.85-.48,1.88-.72,3.09-.72,1.53,0,2.83.39,3.9,1.17,1.07.78,1.89,1.92,2.44,3.44.55,1.52.83,3.39.83,5.61,0,2.39-.31,4.35-.94,5.88s-1.49,2.66-2.57,3.39c-1.09.73-2.32,1.09-3.7,1.09-1.11,0-2.09-.23-2.94-.7-.85-.47-1.55-1.19-2.11-2.17-.56-.97-.94-2.2-1.17-3.68h-.33c.12.72.23,1.46.33,2.24.1.78.18,1.54.24,2.29.06.75.09,1.47.09,2.16v4.81h-5.99ZM159.18,98.98c.79,0,1.44-.25,1.94-.74s.88-1.14,1.11-1.94c.23-.8.35-1.65.35-2.53,0-.99-.13-1.88-.39-2.68-.26-.8-.64-1.44-1.15-1.92-.51-.48-1.13-.72-1.87-.72-.47,0-.92.11-1.37.31-.44.21-.84.53-1.18.96-.35.43-.62.98-.83,1.65s-.31,1.47-.31,2.41v.22c0,.74.07,1.38.22,1.92.15.54.34,1.01.59,1.41.25.4.53.72.85.96.32.25.65.43,1,.54.35.11.69.17,1.04.17Z"/>
      <path class="cls-6" d="M173.76,82.44c-1.13,0-2-.24-2.61-.72-.6-.48-.91-1.18-.91-2.09s.3-1.65.91-2.13c.6-.48,1.47-.72,2.61-.72s2.04.25,2.65.74c.6.49.91,1.2.91,2.11s-.3,1.58-.91,2.07-1.49.74-2.65.74ZM170.8,103.38v-19.54h5.99v19.54h-5.99Z"/>
      <path class="cls-6" d="M188.74,103.9c-1.85,0-3.4-.26-4.64-.79-1.25-.53-2.25-1.26-3.02-2.18-.76-.92-1.31-1.98-1.65-3.16s-.5-2.43-.5-3.74c0-1.41.18-2.75.54-4.03.36-1.28.91-2.42,1.67-3.42.75-1,1.73-1.79,2.92-2.37,1.2-.58,2.63-.87,4.31-.87s3.11.29,4.31.87c1.2.58,2.15,1.39,2.87,2.42.71,1.04,1.18,2.23,1.39,3.59.21,1.36.18,2.82-.09,4.4l-14.17.22v-3.26l9.58-.19-.78,1.89c.15-1.13.13-2.09-.06-2.87-.18-.78-.52-1.37-1.02-1.78-.49-.41-1.17-.61-2.04-.61-.91,0-1.64.24-2.18.7-.54.47-.92,1.13-1.15,1.98-.22.85-.33,1.86-.33,3.02,0,2,.33,3.45,1,4.37.67.91,1.69,1.37,3.07,1.37.59,0,1.09-.07,1.48-.22.39-.15.71-.36.96-.65.25-.28.42-.63.52-1.04.1-.41.13-.87.11-1.39l5.48.3c.07.81,0,1.65-.24,2.52-.23.86-.67,1.67-1.31,2.41s-1.54,1.34-2.68,1.81c-1.15.47-2.6.7-4.35.7Z"/>
      <path class="cls-6" d="M208.68,103.9c-1.75,0-3.26-.26-4.51-.79-1.26-.53-2.28-1.26-3.07-2.2-.79-.94-1.37-2.01-1.74-3.22-.37-1.21-.55-2.49-.55-3.85s.18-2.69.55-3.94c.37-1.25.94-2.37,1.72-3.37s1.79-1.78,3.03-2.35c1.25-.57,2.74-.85,4.5-.85,2.07,0,3.74.39,5.01,1.17,1.27.78,2.16,1.78,2.66,3.02.5,1.23.65,2.57.43,4l-5.18.41c.05-.89-.04-1.62-.28-2.2-.23-.58-.59-1.01-1.05-1.29-.47-.28-1.04-.42-1.7-.42-.59,0-1.12.11-1.57.33-.46.22-.84.56-1.15,1.02-.31.46-.54,1.03-.7,1.72-.16.69-.24,1.52-.24,2.48,0,1.23.14,2.29.42,3.18s.72,1.57,1.29,2.04c.58.47,1.31.7,2.2.7s1.6-.22,2.07-.67.78-1,.93-1.68c.15-.68.17-1.35.07-2.02l5.51.26c.15,1.09.1,2.14-.15,3.16-.25,1.02-.72,1.94-1.42,2.76-.7.81-1.64,1.46-2.81,1.92-1.17.47-2.6.7-4.27.7Z"/>
      <path class="cls-6" d="M228.55,103.9c-1.85,0-3.4-.26-4.64-.79-1.25-.53-2.25-1.26-3.02-2.18-.76-.92-1.31-1.98-1.65-3.16s-.5-2.43-.5-3.74c0-1.41.18-2.75.54-4.03.36-1.28.91-2.42,1.67-3.42.75-1,1.73-1.79,2.92-2.37,1.2-.58,2.63-.87,4.31-.87s3.11.29,4.31.87c1.2.58,2.15,1.39,2.87,2.42.72,1.04,1.18,2.23,1.39,3.59s.18,2.82-.09,4.4l-14.17.22v-3.26l9.58-.19-.78,1.89c.15-1.13.13-2.09-.06-2.87-.18-.78-.52-1.37-1.02-1.78-.49-.41-1.17-.61-2.04-.61-.91,0-1.64.24-2.18.7-.54.47-.92,1.13-1.15,1.98-.22.85-.33,1.86-.33,3.02,0,2,.33,3.45,1,4.37.67.91,1.69,1.37,3.07,1.37.59,0,1.08-.07,1.48-.22.39-.15.71-.36.96-.65.25-.28.42-.63.52-1.04.1-.41.14-.87.11-1.39l5.48.3c.07.81,0,1.65-.24,2.52-.24.86-.67,1.67-1.31,2.41-.64.74-1.54,1.34-2.68,1.81-1.15.47-2.6.7-4.35.7Z"/>
      <path class="cls-6" d="M31.79,147.78v-24.42h8.99l4.99,17.35h.07l4.88-17.35h8.51v24.42h-5.55v-18.39h-.07l-5.51,18.39h-5.25l-5.44-18.39h-.07v18.39h-5.55Z"/>
      <path class="cls-6" d="M67.2,148.3c-.99,0-1.92-.17-2.81-.52-.89-.34-1.62-.91-2.18-1.68s-.85-1.82-.85-3.13c0-1.21.23-2.19.7-2.94.47-.75,1.1-1.36,1.89-1.81.79-.46,1.65-.8,2.59-1.04s1.86-.44,2.78-.61c1.28-.25,2.24-.44,2.89-.59.64-.15,1.08-.32,1.31-.52.23-.2.35-.47.35-.81,0-.72-.27-1.26-.8-1.63s-1.23-.56-2.09-.56c-.54,0-1.09.1-1.63.3-.54.2-.99.55-1.33,1.05-.35.51-.51,1.23-.48,2.17l-5.33-.37c-.05-1.55.19-2.84.7-3.87.52-1.02,1.23-1.83,2.13-2.41.9-.58,1.89-.99,2.96-1.24,1.07-.25,2.14-.37,3.2-.37,1.95,0,3.55.36,4.81,1.09,1.26.73,2.19,1.78,2.79,3.15s.91,3.03.91,4.98v10.84h-5.18v-5.59h-.22c-.1,1.11-.46,2.13-1.09,3.05-.63.92-1.46,1.67-2.48,2.22s-2.2.83-3.53.83ZM69.68,143.93c.42,0,.87-.08,1.35-.24.48-.16.94-.42,1.37-.79s.78-.88,1.05-1.54c.27-.65.41-1.46.41-2.42v-.89l1-.11c-.2.32-.52.58-.98.78-.46.2-.97.35-1.54.46-.57.11-1.14.22-1.72.33-.58.11-1.12.26-1.61.44-.49.18-.89.43-1.2.74-.31.31-.46.73-.46,1.28,0,.64.23,1.13.68,1.46.46.33,1,.5,1.65.5Z"/>
      <path class="cls-6" d="M82.15,147.78v-19.54h5.07v7.96h.3c.15-1.92.47-3.51.96-4.75.49-1.25,1.2-2.18,2.11-2.79.91-.62,2.07-.92,3.48-.92,2.12,0,3.72.7,4.79,2.11,1.07,1.41,1.61,3.5,1.61,6.29v11.66h-5.99v-10.88c0-1.33-.2-2.33-.61-3s-1.05-1-1.94-1c-.74,0-1.39.26-1.96.78-.57.52-1.01,1.36-1.33,2.52-.32,1.16-.48,2.71-.48,4.66v6.92h-5.99Z"/>
      <path class="cls-6" d="M111.49,148.3c-1.31,0-2.52-.13-3.64-.39-1.12-.26-2.1-.67-2.92-1.24-.83-.57-1.46-1.33-1.89-2.28-.43-.95-.61-2.1-.54-3.46l5.22-.44c.05.81.23,1.49.56,2.02.32.53.76.92,1.33,1.17.57.25,1.26.37,2.07.37.76,0,1.42-.13,1.98-.39.56-.26.83-.7.83-1.31,0-.32-.1-.58-.3-.79-.2-.21-.56-.41-1.09-.59-.53-.19-1.3-.4-2.31-.65-1.26-.32-2.39-.64-3.4-.96s-1.88-.7-2.59-1.15c-.72-.44-1.26-.99-1.63-1.65-.37-.65-.55-1.46-.55-2.42,0-1.36.36-2.51,1.09-3.46s1.73-1.68,3.02-2.18c1.28-.5,2.76-.76,4.44-.76,1.5,0,2.91.23,4.22.7s2.34,1.23,3.09,2.29c.75,1.06,1.03,2.47.83,4.22l-5.11.48c.07-.71-.03-1.33-.3-1.83-.27-.5-.67-.89-1.18-1.15-.52-.26-1.15-.39-1.89-.39-.84,0-1.49.15-1.94.46-.46.31-.68.7-.68,1.17,0,.37.14.68.43.94.28.26.73.48,1.33.67.6.18,1.39.39,2.35.61.84.17,1.71.39,2.63.67.91.27,1.76.64,2.55,1.09.79.46,1.43,1.05,1.92,1.79.49.74.74,1.68.74,2.81,0,1.21-.33,2.27-1,3.18-.67.91-1.64,1.62-2.92,2.11-1.28.49-2.86.74-4.74.74Z"/>
      <path class="cls-6" d="M125.03,126.84c-1.13,0-2-.24-2.61-.72-.61-.48-.91-1.18-.91-2.09s.3-1.65.91-2.13c.6-.48,1.47-.72,2.61-.72s2.04.25,2.65.74c.6.49.91,1.2.91,2.11s-.3,1.58-.91,2.07c-.6.49-1.49.74-2.65.74ZM122.07,147.78v-19.54h5.99v19.54h-5.99Z"/>
      <path class="cls-6" d="M139.83,148.3c-1.88,0-3.54-.38-5-1.13-1.46-.75-2.59-1.89-3.4-3.4-.81-1.52-1.22-3.42-1.22-5.72s.42-4.35,1.28-5.86c.85-1.52,2.01-2.64,3.48-3.37,1.47-.73,3.13-1.09,4.98-1.09s3.61.38,5.05,1.13c1.44.75,2.57,1.89,3.37,3.4.8,1.52,1.2,3.44,1.2,5.75s-.43,4.35-1.28,5.86c-.85,1.52-2.01,2.63-3.48,3.35-1.47.71-3.13,1.07-4.98,1.07ZM139.98,143.9c.76,0,1.41-.22,1.92-.65.52-.43.91-1.07,1.18-1.91.27-.84.41-1.84.41-3,0-1.28-.15-2.36-.44-3.24-.3-.88-.72-1.55-1.28-2.02-.56-.47-1.23-.7-2.02-.7-.74,0-1.37.22-1.89.65-.52.43-.91,1.07-1.18,1.91s-.41,1.85-.41,3.03c0,1.88.33,3.33.98,4.37.65,1.04,1.56,1.55,2.72,1.55Z"/>
      <path class="cls-6" d="M151.7,147.78v-19.54h5.07v7.96h.3c.15-1.92.47-3.51.96-4.75.49-1.25,1.2-2.18,2.11-2.79.91-.62,2.07-.92,3.48-.92,2.12,0,3.72.7,4.79,2.11,1.07,1.41,1.61,3.5,1.61,6.29v11.66h-5.99v-10.88c0-1.33-.2-2.33-.61-3s-1.05-1-1.94-1c-.74,0-1.39.26-1.96.78-.57.52-1.01,1.36-1.33,2.52-.32,1.16-.48,2.71-.48,4.66v6.92h-5.99Z"/>
    </g>
  </g>
  <g id="_部屋窓" data-name=" 部屋窓">
    <polygon id="win-101" class="cls-8" points="261.61 640.31 244.11 643.1 246.06 671.75 263.61 669.62 261.61 640.31"/>
    <polygon id="win-909" class="cls-8" points="47.13 330.85 55.42 325.3 55.42 343.57 47.13 348.72 47.13 330.85"/>
    <polygon id="win-908" class="cls-8" points="64.93 318.92 73.82 312.97 73.7 332.21 64.93 337.66 64.93 318.92"/>
    <polygon id="win-907" class="cls-8" points="84.17 306.03 93.86 299.54 93.86 319.69 84.17 325.71 84.17 306.03"/>
    <polygon id="win-906" class="cls-8" points="105.04 292.04 115.63 284.95 115.69 306.13 105.07 312.63 105.04 292.04"/>
    <polygon id="win-905" class="cls-8" points="127.94 276.7 139.55 268.92 139.55 291.31 127.92 298.53 127.94 276.7"/>
    <polygon id="win-904" class="cls-8" points="153.08 259.86 165.84 251.3 165.84 274.98 153.07 282.91 153.08 259.86"/>
    <polygon id="win-903" class="cls-8" points="180.73 241.32 194.9 231.83 194.9 256.92 180.68 265.75 180.73 241.32"/>
    <polygon id="win-902" class="cls-8" points="211.49 220.71 227.19 210.19 227.19 236.86 211.49 246.62 211.49 220.71"/>
    <polygon id="win-901" class="cls-8" points="245.68 197.64 263.27 186.01 263.24 214.47 245.6 225.43 245.68 197.64"/>
    <polygon id="win-809" class="cls-8" points="47.13 369.99 55.42 365.17 55.42 386.62 47.13 391.18 47.13 369.99"/>
    <polygon id="win-808" class="cls-8" points="64.93 359.63 73.7 354.52 73.7 376.56 64.93 381.38 64.93 359.63"/>
    <polygon id="win-807" class="cls-8" points="84.16 348.43 93.8 342.82 93.8 365.49 84.16 370.8 84.16 348.43"/>
    <polygon id="win-806" class="cls-8" points="105.04 336.27 115.63 330.1 115.63 353.47 105.04 359.3 105.04 336.27"/>
    <polygon id="win-805" class="cls-8" points="127.92 322.95 139.49 316.22 139.49 340.34 127.92 346.71 127.92 322.95"/>
    <polygon id="win-804" class="cls-8" points="153.07 308.31 165.73 300.93 165.73 325.89 153.07 332.86 153.07 308.31"/>
    <polygon id="win-803" class="cls-8" points="180.68 292.23 194.9 283.95 194.9 309.83 180.68 317.66 180.68 292.23"/>
    <polygon id="win-802" class="cls-8" points="211.49 274.29 227.19 265.14 227.19 292.06 211.49 300.8 211.49 274.29"/>
    <polygon id="win-801" class="cls-8" points="245.61 254.42 263.24 244.15 263.24 272.21 245.6 281.92 245.61 254.42"/>
    <polygon id="win-709" class="cls-8" points="47.13 412.41 55.42 408.14 55.42 429.77 47.13 433.71 47.13 412.41"/>
    <polygon id="win-708" class="cls-8" points="64.93 403.24 73.7 398.73 73.7 420.93 64.93 425.25 64.93 403.24"/>
    <polygon id="win-707" class="cls-8" points="84.16 393.34 93.8 388.37 93.8 411.53 84.16 416.12 84.16 393.34"/>
    <polygon id="win-706" class="cls-8" points="105.04 382.58 115.63 377.12 115.63 401.16 105.04 406.19 105.04 382.58"/>
    <polygon id="win-705" class="cls-8" points="127.92 370.79 139.49 364.84 139.49 389.82 127.92 395.32 127.92 370.79"/>
    <polygon id="win-704" class="cls-8" points="153.07 357.84 165.73 351.32 165.73 377.35 153.07 383.37 153.07 357.84"/>
    <polygon id="win-703" class="cls-8" points="180.68 343.61 194.9 336.29 194.9 363.49 180.68 370.25 180.68 343.61"/>
    <polygon id="win-702" class="cls-8" points="211.49 327.74 227.19 319.65 227.19 348.14 211.49 355.61 211.49 327.74"/>
    <polygon id="win-701" class="cls-8" points="245.61 310.17 263.24 301.08 263.24 331.02 245.6 339.4 245.61 310.17"/>
    <polygon id="win-609" class="cls-8" points="47.13 456.28 55.42 452.6 55.42 474.73 47.13 478.11 47.13 456.28"/>
    <polygon id="win-608" class="cls-8" points="64.93 448.38 73.7 444.49 73.7 467.3 64.93 470.87 64.93 448.38"/>
    <polygon id="win-607" class="cls-8" points="84.16 463.05 93.8 459.13 93.8 435.57 84.16 439.85 84.16 463.05"/>
    <polygon id="win-606" class="cls-8" points="105.04 430.58 115.63 425.88 115.63 450.25 105.04 454.55 105.04 430.58"/>
    <polygon id="win-605" class="cls-8" points="127.92 420.43 139.48 415.29 139.48 440.55 127.92 445.25 127.92 420.43"/>
    <polygon id="win-604" class="cls-8" points="153.07 409.27 165.73 403.65 165.73 429.87 153.07 435.02 153.07 409.27"/>
    <polygon id="win-603" class="cls-8" points="180.68 397.01 194.9 390.7 194.9 418.01 180.68 423.79 180.68 397.01"/>
    <polygon id="win-602" class="cls-8" points="211.49 383.34 227.19 376.37 227.19 404.87 211.49 411.26 211.49 383.34"/>
    <polygon id="win-601" class="cls-8" points="245.61 368.2 263.24 360.38 263.24 390.21 245.61 397.39 245.61 368.2"/>
    <polygon id="win-509" class="cls-8" points="47.13 498.7 55.42 495.64 55.42 515.82 47.13 518.6 47.13 498.7"/>
    <polygon id="win-508" class="cls-8" points="64.93 492.12 73.7 488.89 73.7 509.67 64.93 512.62 64.93 492.12"/>
    <polygon id="win-507" class="cls-8" points="84.16 485.03 93.8 481.47 93.8 502.91 84.16 506.16 84.16 485.03"/>
    <polygon id="win-506" class="cls-8" points="105.04 477.31 115.63 473.4 115.63 495.57 105.04 499.13 105.04 477.31"/>
    <polygon id="win-505" class="cls-8" points="127.92 468.87 139.48 464.62 139.48 487.55 127.92 491.44 127.92 468.87"/>
    <polygon id="win-504" class="cls-8" points="153.07 459.58 165.73 454.91 165.73 478.73 153.07 482.99 153.07 459.58"/>
    <polygon id="win-503" class="cls-8" points="180.68 449.38 194.9 444.13 194.9 468.95 180.68 473.7 180.68 449.38"/>
    <polygon id="win-502" class="cls-8" points="211.49 438.01 227.19 432.21 227.19 458.06 211.49 463.34 211.49 438.01"/>
    <polygon id="win-501" class="cls-8" points="245.61 425.41 263.24 418.9 263.24 445.95 245.61 451.87 245.61 425.41"/>
    <polygon id="win-409" class="cls-8" points="47.13 539.81 55.42 537.29 55.42 558.82 47.13 561.04 47.13 539.81"/>
    <polygon id="win-408" class="cls-8" points="64.93 534.41 73.7 531.75 73.7 553.93 64.93 556.27 64.93 534.41"/>
    <polygon id="win-407" class="cls-8" points="84.16 528.58 93.8 525.66 93.8 548.54 84.16 551.13 84.16 528.58"/>
    <polygon id="win-406" class="cls-8" points="105.04 522.25 115.63 519.04 115.63 542.7 105.04 545.53 105.04 522.25"/>
    <polygon id="win-405" class="cls-8" points="127.92 515.32 139.48 511.81 139.49 536.31 127.92 539.41 127.92 515.32"/>
    <polygon id="win-404" class="cls-8" points="153.07 507.7 165.73 503.83 165.73 529.28 153.07 532.67 153.07 507.7"/>
    <polygon id="win-403" class="cls-8" points="180.68 499.33 194.9 495.02 194.9 521.47 180.68 525.28 180.68 499.33"/>
    <polygon id="win-402" class="cls-8" points="211.49 489.99 227.19 485.23 227.19 512.83 211.49 517.03 211.49 489.99"/>
    <polygon id="win-401" class="cls-8" points="245.6 479.65 263.24 474.31 263.24 503.18 245.61 507.9 245.6 479.65"/>
    <polygon id="win-301" class="cls-8" points="263.24 531.74 245.6 536.14 245.6 564.76 263.24 561.45 263.24 531.74"/>
    <polygon id="win-302" class="cls-8" points="227.19 540.42 211.49 544.02 211.49 571.79 227.19 568.65 227.19 540.42"/>
    <polygon id="win-303" class="cls-8" points="194.9 547.93 180.68 551.23 180.68 577.95 194.9 575.1 194.9 547.93"/>
    <polygon id="win-304" class="cls-8" points="165.73 554.71 153.07 557.65 153.07 583.47 165.73 580.94 165.73 554.71"/>
    <polygon id="win-305" class="cls-8" points="139.48 560.81 127.92 563.49 127.92 588.49 139.48 586.18 139.48 560.81"/>
    <polygon id="win-306" class="cls-8" points="115.63 566.35 105.04 568.81 105.04 593.06 115.63 590.95 115.63 566.35"/>
    <polygon id="win-307" class="cls-8" points="93.8 571.42 84.16 573.67 84.16 597.24 93.8 595.31 93.8 571.42"/>
    <polygon id="win-308" class="cls-8" points="73.7 576.1 64.93 578.13 64.93 601.08 73.7 599.33 73.7 576.1"/>
    <polygon id="win-309" class="cls-8" points="55.42 580.34 47.13 582.27 47.13 604.64 55.42 602.98 55.42 580.34"/>
    <polygon id="win-201" class="cls-8" points="261.98 586.04 244.47 589.57 245.71 617.6 263.19 614.69 261.98 586.04"/>
    <polygon id="win-202" class="cls-8" points="226.16 593.26 210.62 596.4 211.75 623.27 227.35 620.67 226.16 593.26"/>
    <polygon id="win-203" class="cls-8" points="194.15 599.73 180.04 602.57 181.13 628.38 195.26 626.02 194.15 599.73"/>
    <polygon id="win-204" class="cls-8" points="165.2 605.57 152.64 608.11 153.68 632.96 166.27 630.86 165.2 605.57"/>
    <polygon id="win-205" class="cls-8" points="139.15 610.83 127.68 613.14 128.69 637.12 140.18 635.21 139.15 610.83"/>
    <polygon id="win-206" class="cls-8" points="115.48 615.6 104.97 617.72 105.95 640.92 116.47 639.17 115.48 615.6"/>
    <polygon id="win-207" class="cls-8" points="93.82 619.97 84.25 621.91 85.19 644.38 94.78 642.78 93.82 619.97"/>
    <polygon id="win-208" class="cls-8" points="73.87 624 65.16 625.75 66.08 647.57 74.8 646.12 73.87 624"/>
    <polygon id="win-209" class="cls-8" points="55.73 627.66 47.5 629.32 48.39 650.52 56.63 649.14 55.73 627.66"/>
    <polygon id="win-102" class="cls-8" points="225.81 645.89 210.28 648.31 212.15 675.87 227.72 673.98 225.81 645.89"/>
    <polygon id="win-103" class="cls-8" points="193.84 651.13 179.74 653.38 181.58 679.6 195.66 677.88 193.84 651.13"/>
    <polygon id="win-104" class="cls-8" points="165.03 655.73 152.4 657.76 154.11 682.94 166.77 681.4 165.03 655.73"/>
    <polygon id="win-105" class="cls-8" points="138.92 659.91 127.44 661.74 129.09 685.98 140.6 684.58 138.92 659.91"/>
    <polygon id="win-106" class="cls-8" points="115.3 663.68 104.74 665.37 106.33 688.74 116.86 687.47 115.3 663.68"/>
    <polygon id="win-107" class="cls-8" points="93.63 667.14 84.04 668.67 85.58 691.28 95.19 690.1 93.63 667.14"/>
    <polygon id="win-108" class="cls-8" points="73.81 670.31 64.97 671.72 66.46 693.6 75.18 692.54 73.81 670.31"/>
    <polygon id="win-109" class="cls-8" points="55.54 673.22 47.32 674.53 48.76 695.76 57.11 694.74 55.54 673.22"/>
    <g>
      <polygon id="win-side-A-9" class="cls-8" points="434.48 252 434.51 272.09 421.79 265.49 421.74 244.89 434.48 252"/>
      <polygon id="win-side-B-9" class="cls-8" points="376.08 241.16 360.51 233.05 360.5 210.2 376.12 218.92 376.08 241.16"/>
    </g>
    <g>
      <polygon id="win-side-A-8" class="cls-8" points="434.43 302.57 434.46 322.66 421.73 316.06 421.69 295.46 434.43 302.57"/>
      <polygon id="win-side-B-8" class="cls-8" points="376.03 291.73 360.46 283.62 360.45 260.77 376.07 269.49 376.03 291.73"/>
    </g>
    <g>
      <polygon id="win-side-A-7" class="cls-8" points="434.5 352.17 434.49 372.22 421.75 366.78 421.76 346.2 434.5 352.17"/>
      <polygon id="win-side-B-7" class="cls-8" points="360.5 317.13 376.12 324.44 376.09 346.69 360.5 339.99 360.5 317.13"/>
    </g>
    <g>
      <polygon id="win-side-A-6" class="cls-8" points="421.78 397.01 434.53 401.77 434.46 421.75 421.73 417.57 421.78 397.01"/>
      <polygon id="win-side-B-6" class="cls-8" points="376.12 379.37 376.1 401.65 360.51 396.46 360.49 373.61 376.12 379.37"/>
    </g>
    <g>
      <polygon id="win-side-A-5" class="cls-8" points="421.74 468.22 421.76 447.74 434.49 451.29 434.5 471.44 421.74 468.22"/>
      <polygon id="win-side-B-5" class="cls-8" points="360.52 429.93 376.12 434.35 376.1 456.71 360.45 452.73 360.52 429.93"/>
    </g>
    <g>
      <polygon id="win-side-A-4" class="cls-8" points="421.75 519.06 421.75 498.44 434.49 500.92 434.52 520.97 421.75 519.06"/>
      <polygon id="win-side-B-4" class="cls-8" points="360.51 509.23 360.49 486.33 376.1 489.32 376.12 511.61 360.51 509.23"/>
    </g>
    <g>
      <polygon id="win-side-A-3" class="cls-8" points="421.75 573.9 421.75 553.28 434.49 555.76 434.52 575.81 421.75 573.9"/>
      <polygon id="win-side-B-3" class="cls-8" points="360.51 564.07 360.49 541.17 376.1 544.16 376.12 566.45 360.51 564.07"/>
    </g>
    <g>
      <polygon id="win-side-A-2" class="cls-8" points="421.75 628.74 421.75 608.12 434.49 610.6 434.52 630.65 421.75 628.74"/>
      <polygon id="win-side-B-2" class="cls-8" points="360.51 618.91 360.49 596.01 376.1 599 376.12 621.29 360.51 618.91"/>
    </g>
    <g>
      <polygon id="win-side-A-1" class="cls-8" points="421.75 683.59 421.75 662.96 434.49 665.44 434.52 685.49 421.75 683.59"/>
      <polygon id="win-side-B-1" class="cls-8" points="360.51 673.75 360.49 650.85 376.1 653.84 376.12 676.13 360.51 673.75"/>
    </g>
  </g>
</svg>